<svg version="1.1" xmlns="http://www.w3.org/2000/svg" xmlns:xlink="http://www.w3.org/1999/xlink" width="500" height="500" viewBox="0 0 500 500"><defs/><g><g><path fill="rgb(0,0,0)" stroke="rgb(0,0,0)" paint-order="fill stroke markers" d=" M 53.11731269069189 301.41342152617017 C 46.39673573213237 314.8538022268882 47.725196666022825 317.352840266363 44.29385010486979 327.4961067373948 C 40.862503543716755 337.6393732084266 37.0801950975377 351.3905234163708 32.52923332377368 362.27302035236096 C 27.97827155000965 373.1555172883511 10.811542445472043 392.6891645673894 16.988079462285654 392.791088353336 C 23.16461647909928 392.89301213928263 55.22365003453878 371.5651362737153 69.58845542465534 362.88456306804073 C 83.9532608147719 354.20398986236614 93.59845108764489 352.4980298637167 103.17691180298499 340.70764911928853 C 112.75537251832506 328.9172683748604 123.6572960181694 304.0345831318466 127.05921971669588 292.14227860147184 C 130.46114341522235 280.2499740710971 130.66210530422202 276.90189794843747 123.58845399414386 269.3538219370399" fill-opacity="1" stroke-opacity="1" stroke-linecap="round" stroke-miterlimit="10" stroke-width="0.2" stroke-dasharray=""/><path fill="rgb(0,0,0)" stroke="rgb(0,0,0)" paint-order="fill stroke markers" d=" M 130.17691108772925 293.9422785537881 C 123.62787315554284 302.2855450725036 116.27498766735778 324.0211160818575 115.47114011135909 337.41342057249585 C 114.6672925553604 350.8057250631342 120.3105591456015 362.03130005187063 125.35382575173718 374.2961054976182 C 130.39709235787285 386.5609109433657 139.6374731698529 400.5561011010031 145.73073974817308 411.0022532469812 C 151.82400632649322 421.4484053929593 155.91919674639104 429.3553271216627 161.91342522165814 436.97301837348675 C 167.90765369692525 444.5907096253108 177.89226312324996 475.2968575336196 181.6961105997758 456.7084007579256 C 185.4999580763016 438.11994398223163 186.62689108750163 352.1680409753467 184.73651008081305 325.4422777193231 C 182.84612907412446 298.7165144632995 177.947091098228 304.20189722523446 170.35382455964427 296.3538212217842" fill-opacity="1" stroke-opacity="1" stroke-linecap="round" stroke-miterlimit="10" stroke-width="0.2" stroke-dasharray=""/><path fill="rgb(110,179,229)" stroke="rgb(0,0,0)" paint-order="fill stroke markers" d=" M 66.05771190946872 152.99999594688416 C 90.910524992094 109.9536609767647 145.95366002309038 95.20489739633197 188.99999499320984 120.05771047895725 C 232.0463299633293 144.91052356158252 246.79509354376202 199.9536585925789 221.94228046113676 242.99999356269836 C 197.08946737851147 286.0463285328178 142.0463323475151 300.7950921132506 98.99999737739563 275.9422790306253 C 55.95366240727617 251.089465948 41.20489882684345 196.04633091700362 66.05771190946872 152.99999594688416" fill-opacity="1" stroke-opacity="1" stroke-linecap="round" stroke-miterlimit="10" stroke-width="0.2" stroke-dasharray=""/><path fill="rgb(255,255,255)" stroke="rgb(0,0,0)" paint-order="fill stroke markers" d=" M 92.55808856325228 168.29999554157257 C 108.96094519778495 139.88941446129374 145.28941431824256 130.15523049820814 173.69999539852142 146.5580871327408 C 202.11057647880025 162.96094376727348 211.84476044188585 199.2894128877311 195.44190380735319 227.69999396800995 C 179.03904717282052 256.1105750482888 142.7105780523629 265.8447590113744 114.29999697208405 249.4419023768417 C 85.88941589180521 233.03904574230904 76.15523192871962 196.71057662185143 92.55808856325228 168.29999554157257" fill-opacity="1" stroke-opacity="1" stroke-linecap="round" stroke-miterlimit="10" stroke-width="0.2" stroke-dasharray=""/><g><path fill="rgb(110,179,229)" stroke="rgb(0,0,0)" paint-order="fill stroke markers" d=" M 125.2879445074045 286.03327648874813 C 135.1596499403938 308.2054899123922 187.12117279094983 338.20548911766355 203.23022878323854 331.03327529665523 C 219.33928477552723 323.8610614756469 231.81398589412606 265.17220698634236 221.94228046113676 242.99999356269836" fill-opacity="1" stroke-opacity="1" stroke-linecap="round" stroke-miterlimit="10" stroke-dasharray=""/><path fill="rgb(255,255,255)" stroke="rgb(0,0,0)" paint-order="fill stroke markers" d=" M 195.44190380735319 227.69999396800995 C 196.32458968614984 280.1711357482991 155.62695597895836 286.5727257064991 131.6500420778899 256.1019606992028" fill-opacity="1" stroke-opacity="1" stroke-linecap="round" stroke-miterlimit="10" stroke-width="0.5" stroke-dasharray=""/><path fill="rgb(255,255,255)" stroke="rgb(0,0,0)" paint-order="fill stroke markers" d=" M 195.44190380735319 227.69999396800995" fill-opacity="1" stroke-opacity="1" stroke-linecap="round" stroke-miterlimit="10" stroke-width="0.5" stroke-dasharray=""/><path fill="none" stroke="rgb(0,0,0)" paint-order="fill stroke markers" d=" M 143.99999618530273 197.99999475479126 L 221.94228046113676 242.99999356269836" stroke-opacity="1" stroke-linecap="round" stroke-miterlimit="10" stroke-dasharray=""/></g><g><path fill="rgb(110,179,229)" stroke="rgb(0,0,0)" paint-order="fill stroke markers" d=" M 54.49302797328312 207.4075561996648 C 36.456524658296814 223.64769672946989 23.981823539697984 282.3365512187745 35.78097629538489 295.4408379336217 C 47.58012905107179 308.5451246484689 107.2514411924182 302.27341701855323 125.2879445074045 286.03327648874813" fill-opacity="1" stroke-opacity="1" stroke-linecap="round" stroke-miterlimit="10" stroke-dasharray=""/><path fill="rgb(255,255,255)" stroke="rgb(0,0,0)" paint-order="fill stroke markers" d=" M 131.6500420778899 256.1019606992028 C 82.01978570754198 273.15591938044076 63.35525141677738 236.42836973352684 84.92539716536979 204.2089853084078" fill-opacity="1" stroke-opacity="1" stroke-linecap="round" stroke-miterlimit="10" stroke-width="0.5" stroke-dasharray=""/><path fill="rgb(255,255,255)" stroke="rgb(0,0,0)" paint-order="fill stroke markers" d=" M 131.6500420778899 256.1019606992028" fill-opacity="1" stroke-opacity="1" stroke-linecap="round" stroke-miterlimit="10" stroke-width="0.5" stroke-dasharray=""/><path fill="none" stroke="rgb(0,0,0)" paint-order="fill stroke markers" d=" M 143.99999618530273 197.99999475479126 L 125.2879445074045 286.03327648874813" stroke-opacity="1" stroke-linecap="round" stroke-miterlimit="10" stroke-dasharray=""/></g><g><path fill="rgb(110,179,229)" stroke="rgb(0,0,0)" paint-order="fill stroke markers" d=" M 107.39369927821642 115.78090574501928 C 86.37482175836543 103.64565115086955 26.703509617018995 109.91735878078526 17.886731066196774 125.18846718989285 C 9.069952515374553 140.45957559900046 33.47415045343212 195.27230160551508 54.493027973283105 207.4075561996648" fill-opacity="1" stroke-opacity="1" stroke-linecap="round" stroke-miterlimit="10" stroke-dasharray=""/><path fill="rgb(255,255,255)" stroke="rgb(0,0,0)" paint-order="fill stroke markers" d=" M 84.92539716536977 204.20898530840782 C 53.36952597932711 162.27776963586007 82.53184311063814 133.17730567236802 119.83984022662577 143.73539600834175" fill-opacity="1" stroke-opacity="1" stroke-linecap="round" stroke-miterlimit="10" stroke-width="0.5" stroke-dasharray=""/><path fill="rgb(255,255,255)" stroke="rgb(0,0,0)" paint-order="fill stroke markers" d=" M 84.92539716536977 204.20898530840782" fill-opacity="1" stroke-opacity="1" stroke-linecap="round" stroke-miterlimit="10" stroke-width="0.5" stroke-dasharray=""/><path fill="none" stroke="rgb(0,0,0)" paint-order="fill stroke markers" d=" M 143.99999618530273 197.99999475479126 L 54.493027973283105 207.4075561996648" stroke-opacity="1" stroke-linecap="round" stroke-miterlimit="10" stroke-dasharray=""/></g><g><path fill="rgb(110,179,229)" stroke="rgb(0,0,0)" paint-order="fill stroke markers" d=" M 210.88302870647286 137.7782417778257 C 215.92915130882017 114.03810144670277 191.52495337076263 59.22537544018812 174.27673179938654 55.55915276805371 C 157.02851022801048 51.892930095919326 112.43982188056373 92.04076541389637 107.39369927821642 115.78090574501928" fill-opacity="1" stroke-opacity="1" stroke-linecap="round" stroke-miterlimit="10" stroke-dasharray=""/><path fill="rgb(255,255,255)" stroke="rgb(0,0,0)" paint-order="fill stroke markers" d=" M 119.83984022662577 143.73539600834175 C 149.96749565938586 100.76652085186701 186.65533312800403 119.50899468095139 188.14279764927502 158.253637789994" fill-opacity="1" stroke-opacity="1" stroke-linecap="round" stroke-miterlimit="10" stroke-width="0.5" stroke-dasharray=""/><path fill="rgb(255,255,255)" stroke="rgb(0,0,0)" paint-order="fill stroke markers" d=" M 119.83984022662577 143.73539600834175" fill-opacity="1" stroke-opacity="1" stroke-linecap="round" stroke-miterlimit="10" stroke-width="0.5" stroke-dasharray=""/><path fill="none" stroke="rgb(0,0,0)" paint-order="fill stroke markers" d=" M 143.99999618530273 197.99999475479126 L 107.39369927821642 115.78090574501928" stroke-opacity="1" stroke-linecap="round" stroke-miterlimit="10" stroke-dasharray=""/></g><g><path fill="rgb(110,179,229)" stroke="rgb(0,0,0)" paint-order="fill stroke markers" d=" M 221.94228046113676 242.99999356269834 C 246.07983326063746 240.4630345345219 290.66852160808423 200.31519921654487 288.82531298230685 182.77824058573276 C 286.9821043565296 165.24128195492065 235.02058150597355 135.2412827496493 210.88302870647286 137.77824177782568" fill-opacity="1" stroke-opacity="1" stroke-linecap="round" stroke-miterlimit="10" stroke-dasharray=""/><path fill="rgb(255,255,255)" stroke="rgb(0,0,0)" paint-order="fill stroke markers" d=" M 188.14279764927502 158.25363778999397 C 238.31858389410883 173.62862815748937 231.83059729213574 214.3125779806109 195.44190380735319 227.69999396800992" fill-opacity="1" stroke-opacity="1" stroke-linecap="round" stroke-miterlimit="10" stroke-width="0.5" stroke-dasharray=""/><path fill="rgb(255,255,255)" stroke="rgb(0,0,0)" paint-order="fill stroke markers" d=" M 188.14279764927502 158.25363778999397" fill-opacity="1" stroke-opacity="1" stroke-linecap="round" stroke-miterlimit="10" stroke-width="0.5" stroke-dasharray=""/><path fill="none" stroke="rgb(0,0,0)" paint-order="fill stroke markers" d=" M 143.99999618530273 197.99999475479126 L 210.88302870647286 137.77824177782568" stroke-opacity="1" stroke-linecap="round" stroke-miterlimit="10" stroke-dasharray=""/></g><path fill="rgb(255,255,255)" stroke="rgb(0,0,0)" paint-order="fill stroke markers" d=" M 105.02885404738572 175.4999953508377 C 117.45526058869837 153.97682786577798 144.97682810419656 146.6024460755616 166.4999955892563 159.02885261687425 C 188.02316307431602 171.4552591581869 195.3975448645324 198.97682667368508 182.97113832321975 220.4999941587448 C 170.5447317819071 242.02316164380454 143.0231642664089 249.39754343402092 121.49999678134918 236.97113689270827 C 99.97682929628945 224.54473035139563 92.60244750607309 197.02316283589744 105.02885404738572 175.4999953508377" fill-opacity="1" stroke-opacity="1" stroke-linecap="round" stroke-miterlimit="10" stroke-width="0.2" stroke-dasharray=""/><path fill="rgb(0,0,0)" stroke="rgb(0,0,0)" paint-order="fill stroke markers" d=" M 120.61731090255253 184.49999511241913 C 128.07315482734012 171.5860946213833 144.58609533663903 167.16146554725347 157.49999582767487 174.61730947204106 C 170.4138963187107 182.07315339682864 174.83852539284052 198.58609390612756 167.38268146805294 211.4999943971634 C 159.92683754326535 224.41389488819922 143.41389703396644 228.83852396232905 130.4999965429306 221.38268003754146 C 117.58609605189477 213.92683611275388 113.16146697776495 197.41389560345496 120.61731090255253 184.49999511241913" fill-opacity="1" stroke-opacity="1" stroke-linecap="round" stroke-miterlimit="10" stroke-width="0.2" stroke-dasharray=""/></g><g><path fill="rgb(0,0,0)" stroke="rgb(0,0,0)" paint-order="fill stroke markers" d=" M 323.99999141693115 361.7999904155731 C 321.89999147256214 370.79999017715454 317.3999915917714 367.4999902645747 320.3999915122986 388.7999897003174 C 323.39999143282574 410.09998913606006 336.8999910751979 476.39998737970984 341.999990940094 489.5999870300293 C 347.0999908049901 502.79998668034875 347.0999908049901 475.7999873956045 350.9999907016754 467.9999876022339 C 354.8999905983607 460.1999878088633 359.99999046325684 452.9999879995982 365.3999903202057 442.7999882698059 C 370.79999017715454 432.5999885400136 379.19998995463055 418.7999889055888 383.39998984336853 406.7999892234802 C 387.5999897321065 394.79998954137164 391.79998962084454 385.1999897956848 390.59998965263367 370.79999017715454 C 389.3999896844228 356.39999055862427 382.7999898592631 329.39999127388 376.1999900341034 320.3999915122986 C 369.59999020894367 311.39999175071716 358.19999051094055 314.39999167124427 350.9999907016754 316.799991607666" fill-opacity="1" stroke-opacity="1" stroke-linecap="round" stroke-miterlimit="10" stroke-width="0.2" stroke-dasharray=""/><path fill="rgb(0,0,0)" stroke="rgb(0,0,0)" paint-order="fill stroke markers" d=" M 368.99999022483826 298.7999920845032 C 365.9999903043111 301.7999920050303 374.9999900658925 310.7999917666117 377.9999899864197 316.799991607666 C 380.99998990694684 322.79999144872033 382.4999898672104 327.29999132951104 386.9999897480011 334.79999113082886 C 391.4999896287918 342.2999909321467 398.9999894301097 355.1999905904134 404.99998927116394 361.7999904155731 C 410.9999891122182 368.39999024073285 407.9999891916911 366.89999028046924 422.9999887943268 374.3999900817871 C 437.9999883969625 381.899989883105 485.99998712539673 405.8999892473221 494.99998688697815 406.7999892234802 C 503.99998664855957 407.69998919963837 484.4999871651332 394.79998954137164 476.9999873638153 379.79998993873596 C 469.49998756249744 364.7999903361003 458.99998784065247 330.29999125003815 449.99998807907104 316.799991607666 C 440.9999883174896 303.2999919652939 431.9999885559082 301.7999920050303 422.9999887943268 298.7999920845032" fill-opacity="1" stroke-opacity="1" stroke-linecap="round" stroke-miterlimit="10" stroke-width="0.2" stroke-dasharray=""/><path fill="rgb(110,179,229)" stroke="rgb(0,0,0)" paint-order="fill stroke markers" d=" M 260.9999930858612 226.7999939918518 C 260.9999930858612 177.09436782660126 301.2943645364249 136.7999963760376 350.9999907016754 136.7999963760376 C 400.70561686692594 136.7999963760376 440.9999883174896 177.09436782660126 440.9999883174896 226.7999939918518 C 440.9999883174896 276.5056201571023 400.70561686692594 316.799991607666 350.9999907016754 316.799991607666 C 301.2943645364249 316.799991607666 260.9999930858612 276.5056201571023 260.9999930858612 226.7999939918518" fill-opacity="1" stroke-opacity="1" stroke-linecap="round" stroke-miterlimit="10" stroke-width="0.2" stroke-dasharray=""/><path fill="rgb(255,255,255)" stroke="rgb(0,0,0)" paint-order="fill stroke markers" d=" M 291.59999227523804 226.7999939918518 C 291.59999227523804 193.99428072278644 318.1942774326101 167.39999556541443 350.9999907016754 167.39999556541443 C 383.80570397074075 167.39999556541443 410.3999891281128 193.99428072278644 410.3999891281128 226.7999939918518 C 410.3999891281128 259.60570726091714 383.80570397074075 286.1999924182892 350.9999907016754 286.1999924182892 C 318.1942774326101 286.1999924182892 291.59999227523804 259.60570726091714 291.59999227523804 226.7999939918518" fill-opacity="1" stroke-opacity="1" stroke-linecap="round" stroke-miterlimit="10" stroke-width="0.2" stroke-dasharray=""/><g><path fill="rgb(110,179,229)" stroke="rgb(0,0,0)" paint-order="fill stroke markers" d=" M 378.81151945866674 312.3950781909202 C 398.44677385413434 326.6609255574316 458.4467722646772 326.6609255574316 468.811517074481 312.3950781909202 C 479.1762618842848 298.1292308244088 460.6352427129572 241.0658413583632 440.9999883174896 226.7999939918518" fill-opacity="1" stroke-opacity="1" stroke-linecap="round" stroke-miterlimit="10" stroke-dasharray=""/><path fill="rgb(255,255,255)" stroke="rgb(0,0,0)" paint-order="fill stroke markers" d=" M 410.3999891281128 226.7999939918518 C 437.39998841285706 271.7999927997589 405.3555987276154 297.6927491817672 369.3555996812897 283.29274956323695" fill-opacity="1" stroke-opacity="1" stroke-linecap="round" stroke-miterlimit="10" stroke-width="0.5" stroke-dasharray=""/><path fill="rgb(255,255,255)" stroke="rgb(0,0,0)" paint-order="fill stroke markers" d=" M 410.3999891281128 226.7999939918518" fill-opacity="1" stroke-opacity="1" stroke-linecap="round" stroke-miterlimit="10" stroke-width="0.5" stroke-dasharray=""/><path fill="none" stroke="rgb(0,0,0)" paint-order="fill stroke markers" d=" M 350.9999907016754 226.7999939918518 L 440.9999883174896 226.7999939918518" stroke-opacity="1" stroke-linecap="round" stroke-miterlimit="10" stroke-dasharray=""/></g><g><path fill="rgb(110,179,229)" stroke="rgb(0,0,0)" paint-order="fill stroke markers" d=" M 278.188463136777 279.70066529678513 C 270.6884633354591 302.7832912141188 289.22948250678667 359.84668068016435 305.9999918937683 365.29574949585356 C 322.77050128074995 370.7448183115427 371.3115196573489 335.4777041082538 378.81151945866674 312.3950781909202" fill-opacity="1" stroke-opacity="1" stroke-linecap="round" stroke-miterlimit="10" stroke-dasharray=""/><path fill="rgb(255,255,255)" stroke="rgb(0,0,0)" paint-order="fill stroke markers" d=" M 369.35559968128973 283.29274956323695 C 334.9015162088529 322.87703920145316 300.3737805397881 300.4023153338538 302.94438250884247 261.7144370531078" fill-opacity="1" stroke-opacity="1" stroke-linecap="round" stroke-miterlimit="10" stroke-width="0.5" stroke-dasharray=""/><path fill="rgb(255,255,255)" stroke="rgb(0,0,0)" paint-order="fill stroke markers" d=" M 369.35559968128973 283.29274956323695" fill-opacity="1" stroke-opacity="1" stroke-linecap="round" stroke-miterlimit="10" stroke-width="0.5" stroke-dasharray=""/><path fill="none" stroke="rgb(0,0,0)" paint-order="fill stroke markers" d=" M 350.9999907016754 226.7999939918518 L 378.81151945866674 312.3950781909202" stroke-opacity="1" stroke-linecap="round" stroke-miterlimit="10" stroke-dasharray=""/></g><g><path fill="rgb(110,179,229)" stroke="rgb(0,0,0)" paint-order="fill stroke markers" d=" M 278.18846313677693 173.89932268691848 C 253.91795394847748 173.89932268691848 205.3769355718785 209.1664368902074 205.37693557187853 226.79999399185184 C 205.3769355718785 244.43355109349628 253.91795394847748 279.70066529678513 278.188463136777 279.70066529678513" fill-opacity="1" stroke-opacity="1" stroke-linecap="round" stroke-miterlimit="10" stroke-dasharray=""/><path fill="rgb(255,255,255)" stroke="rgb(0,0,0)" paint-order="fill stroke markers" d=" M 302.94438250884247 261.7144370531078 C 254.65058858690622 241.17887466213858 265.35566407409374 201.3959750421854 302.9443825088424 191.8855509305958" fill-opacity="1" stroke-opacity="1" stroke-linecap="round" stroke-miterlimit="10" stroke-width="0.5" stroke-dasharray=""/><path fill="rgb(255,255,255)" stroke="rgb(0,0,0)" paint-order="fill stroke markers" d=" M 302.94438250884247 261.7144370531078" fill-opacity="1" stroke-opacity="1" stroke-linecap="round" stroke-miterlimit="10" stroke-width="0.5" stroke-dasharray=""/><path fill="none" stroke="rgb(0,0,0)" paint-order="fill stroke markers" d=" M 350.9999907016754 226.7999939918518 L 278.188463136777 279.70066529678513" stroke-opacity="1" stroke-linecap="round" stroke-miterlimit="10" stroke-dasharray=""/></g><g><path fill="rgb(110,179,229)" stroke="rgb(0,0,0)" paint-order="fill stroke markers" d=" M 378.81151945866674 141.2049097927834 C 371.31151965734887 118.1222838754498 322.7705012807499 82.85516967216091 305.99999189376825 88.30423848785009 C 289.2294825067866 93.75330730353926 270.6884633354591 150.81669676958487 278.18846313677693 173.89932268691848" fill-opacity="1" stroke-opacity="1" stroke-linecap="round" stroke-miterlimit="10" stroke-dasharray=""/><path fill="rgb(255,255,255)" stroke="rgb(0,0,0)" paint-order="fill stroke markers" d=" M 302.9443825088424 191.8855509305958 C 307.55125989183955 139.6095857566666 348.69509606411964 137.4971254881096 369.3555996812897 170.30723842046666" fill-opacity="1" stroke-opacity="1" stroke-linecap="round" stroke-miterlimit="10" stroke-width="0.5" stroke-dasharray=""/><path fill="rgb(255,255,255)" stroke="rgb(0,0,0)" paint-order="fill stroke markers" d=" M 302.9443825088424 191.8855509305958" fill-opacity="1" stroke-opacity="1" stroke-linecap="round" stroke-miterlimit="10" stroke-width="0.5" stroke-dasharray=""/><path fill="none" stroke="rgb(0,0,0)" paint-order="fill stroke markers" d=" M 350.9999907016754 226.7999939918518 L 278.18846313677693 173.89932268691848" stroke-opacity="1" stroke-linecap="round" stroke-miterlimit="10" stroke-dasharray=""/></g><g><path fill="rgb(110,179,229)" stroke="rgb(0,0,0)" paint-order="fill stroke markers" d=" M 440.9999883174896 226.79999399185178 C 460.6352427129572 212.53414662534038 479.17626188428477 155.47075715929478 468.81151707448095 141.20490979278338 C 458.4467722646771 126.93906242627199 398.44677385413434 126.93906242627202 378.81151945866674 141.2049097927834" fill-opacity="1" stroke-opacity="1" stroke-linecap="round" stroke-miterlimit="10" stroke-dasharray=""/><path fill="rgb(255,255,255)" stroke="rgb(0,0,0)" paint-order="fill stroke markers" d=" M 369.3555996812897 170.30723842046666 C 420.4966004079213 158.5344775392418 435.21981410276027 197.01180491334304 410.3999891281128 226.7999939918518" fill-opacity="1" stroke-opacity="1" stroke-linecap="round" stroke-miterlimit="10" stroke-width="0.5" stroke-dasharray=""/><path fill="rgb(255,255,255)" stroke="rgb(0,0,0)" paint-order="fill stroke markers" d=" M 369.3555996812897 170.30723842046666" fill-opacity="1" stroke-opacity="1" stroke-linecap="round" stroke-miterlimit="10" stroke-width="0.5" stroke-dasharray=""/><path fill="none" stroke="rgb(0,0,0)" paint-order="fill stroke markers" d=" M 350.9999907016754 226.7999939918518 L 378.81151945866674 141.2049097927834" stroke-opacity="1" stroke-linecap="round" stroke-miterlimit="10" stroke-dasharray=""/></g><path fill="rgb(0,0,0)" stroke="rgb(0,0,0)" paint-order="fill stroke markers" d=" M 305.9999918937683 226.7999939918518 C 305.9999918937683 201.94718090922655 326.1471776190501 181.7999951839447 350.9999907016754 181.7999951839447 C 375.8528037843007 181.7999951839447 395.9999895095825 201.94718090922655 395.9999895095825 226.7999939918518 C 395.9999895095825 251.65280707447707 375.8528037843007 271.7999927997589 350.9999907016754 271.7999927997589 C 326.1471776190501 271.7999927997589 305.9999918937683 251.65280707447707 305.9999918937683 226.7999939918518" fill-opacity="1" stroke-opacity="1" stroke-linecap="round" stroke-miterlimit="10" stroke-width="0.2" stroke-dasharray=""/><path fill="rgb(0,0,0)" stroke="none" paint-order="stroke fill markers" d=" M 351.17999069690705 226.7999939918518 A 0.1 0.1 0 1 1 351.17999060690704 226.79981399188657" fill-opacity="1"/><path fill="rgb(0,0,0)" stroke="none" paint-order="stroke fill markers" d=" M 333.1799911737442 217.79999423027039 A 0.1 0.1 0 1 1 333.1799910837442 217.79981423030515" fill-opacity="1"/><path fill="rgb(0,0,0)" stroke="none" paint-order="stroke fill markers" d=" M 311.5799917459488 237.5999937057495 A 0.1 0.1 0 1 1 311.5799916559488 237.59981370578427" fill-opacity="1"/><path fill="rgb(0,0,0)" stroke="none" paint-order="stroke fill markers" d=" M 338.57999103069307 257.39999318122864 A 0.1 0.1 0 1 1 338.57999094069305 257.3998131812634" fill-opacity="1"/><path fill="rgb(0,0,0)" stroke="none" paint-order="stroke fill markers" d=" M 349.37999074459077 251.99999332427979 A 0.1 0.1 0 1 1 349.37999065459076 251.99981332431454" fill-opacity="1"/><path fill="rgb(0,0,0)" stroke="none" paint-order="stroke fill markers" d=" M 352.97999064922334 237.5999937057495 A 0.1 0.1 0 1 1 352.9799905592233 237.59981370578427" fill-opacity="1"/><path fill="rgb(0,0,0)" stroke="none" paint-order="stroke fill markers" d=" M 365.5799903154373 244.79999351501465 A 0.1 0.1 0 1 1 365.5799902254373 244.7998135150494" fill-opacity="1"/><path fill="rgb(0,0,0)" stroke="none" paint-order="stroke fill markers" d=" M 378.1799899816513 244.79999351501465 A 0.1 0.1 0 1 1 378.1799898916513 244.7998135150494" fill-opacity="1"/><path fill="rgb(0,0,0)" stroke="none" paint-order="stroke fill markers" d=" M 383.57998983860017 237.5999937057495 A 0.1 0.1 0 1 1 383.57998974860016 237.59981370578427" fill-opacity="1"/><path fill="rgb(0,0,0)" stroke="none" paint-order="stroke fill markers" d=" M 387.17998974323274 215.9999942779541 A 0.1 0.1 0 1 1 387.1799896532327 215.99981427798886" fill-opacity="1"/><path fill="rgb(0,0,0)" stroke="none" paint-order="stroke fill markers" d=" M 360.1799904584885 208.79999446868896 A 0.1 0.1 0 1 1 360.17999036848846 208.79981446872372" fill-opacity="1"/><path fill="rgb(139,44,74)" stroke="rgb(0,0,0)" paint-order="fill stroke markers" d=" M 350.9999907016754 226.7999939918518 C 347.99999078114826 225.29999403158823 339.5999910036723 215.9999942779541 332.9999911785126 217.79999423027039 C 326.39999135335285 219.59999418258667 310.499991774559 230.9999938805898 311.39999175071716 237.5999937057495 C 312.2999917268753 244.1999935309092 332.09999120235443 254.99999324480692 338.3999910354614 257.39999318122864 C 344.6999908685684 259.79999311765033 346.79999081293744 255.29999323685965 349.19999074935913 251.99999332427979 C 351.5999906857808 248.69999341169992 350.0999907255173 238.79999367396036 352.7999906539917 237.5999937057495 C 355.4999905824661 236.39999373753867 361.1999904314677 243.5999935468038 365.3999903202057 244.79999351501465 C 369.59999020894367 245.9999934832255 374.9999900658925 245.9999934832255 377.9999899864197 244.79999351501465 C 380.99998990694684 243.5999935468038 381.899989883105 242.39999357859293 383.39998984336853 237.5999937057495 C 384.8999898036321 232.7999938329061 390.8999896446864 220.79999415079752 386.9999897480011 215.9999942779541 C 383.0999898513158 211.1999944051107 365.9999903043111 206.99999451637268 359.99999046325684 208.79999446868896 C 353.9999906222026 210.59999442100525 352.49999066193897 223.79999407132468 350.9999907016754 226.7999939918518" fill-opacity="1" stroke-opacity="1" stroke-linecap="round" stroke-miterlimit="10" stroke-width="0.2" stroke-dasharray=""/></g></g></svg>